<?xml version="1.0" encoding="UTF-8" ?>
<!DOCTYPE svg PUBLIC "-//W3C//DTD SVG 1.1//EN" "http://www.w3.org/Graphics/SVG/1.1/DTD/svg11.dtd">
<svg width="175pt" height="165pt" viewBox="0 0 175 165" version="1.1" xmlns="http://www.w3.org/2000/svg">
<g id="#e33b48ff">
<path fill="#e33b48" opacity="1.00" d=" M 64.29 0.00 L 86.53 0.00 C 104.77 2.08 123.74 5.88 138.63 17.28 C 142.36 20.94 146.78 24.36 148.57 29.46 C 151.56 37.01 150.10 46.43 144.24 52.23 C 141.13 55.42 138.03 58.77 134.03 60.87 C 120.06 69.86 103.34 73.07 87.08 74.85 C 79.38 75.13 71.66 75.02 63.95 74.92 C 50.42 73.65 36.86 71.07 24.38 65.55 C 17.98 62.28 11.51 58.78 6.75 53.25 C 3.14 50.15 1.22 45.72 0.00 41.23 L 0.00 33.87 C 1.30 26.66 6.56 21.42 11.88 16.85 C 26.99 5.69 45.96 1.83 64.29 0.00 Z" />
</g>
<g id="#a9dbdcff">
<path fill="#a9dbdc" opacity="1.00" d=" M 0.00 53.24 C 0.88 56.32 1.18 59.53 2.11 62.60 C 7.40 72.57 17.43 78.44 27.45 82.76 C 30.18 83.67 32.83 84.76 35.53 85.74 C 44.45 88.52 53.73 89.97 63.00 91.00 C 72.91 90.84 82.96 91.89 92.76 90.19 C 95.76 98.12 97.55 106.79 95.45 115.18 C 94.74 115.16 93.33 115.13 92.62 115.11 C 90.71 116.51 88.27 116.22 86.06 116.20 C 79.37 115.89 72.67 115.94 65.98 116.27 C 63.09 116.37 60.02 116.64 57.35 115.26 C 51.00 115.37 44.78 113.69 38.67 112.16 C 26.12 108.27 13.05 103.05 4.67 92.42 C 2.15 89.95 0.97 86.60 0.00 83.29 L 0.00 53.24 Z" />
<path fill="#a9dbdc" opacity="1.00" d=" M 149.33 53.57 C 150.87 63.05 149.50 72.78 150.08 82.36 C 147.12 83.83 144.08 85.16 140.84 85.88 C 136.50 87.00 131.73 87.24 127.96 89.92 C 125.25 91.63 123.43 94.34 121.69 96.96 C 117.84 94.79 113.83 92.81 109.61 91.45 C 105.92 90.81 102.14 90.69 98.56 89.48 C 103.93 88.56 109.25 87.33 114.47 85.74 C 117.17 84.76 119.82 83.67 122.55 82.76 C 132.23 78.55 141.96 73.00 147.37 63.55 C 148.92 60.44 149.09 56.97 149.33 53.57 Z" />
<path fill="#a9dbdc" opacity="1.00" d=" M 142.27 93.26 C 142.21 93.95 142.09 95.33 142.02 96.02 C 138.02 100.74 132.24 103.12 127.22 106.49 C 128.11 102.38 129.62 97.19 134.16 95.87 C 136.82 94.84 139.92 95.11 142.27 93.26 Z" />
<path fill="#a9dbdc" opacity="1.00" d=" M 103.83 99.06 C 110.55 100.29 117.27 103.18 121.89 108.34 L 121.00 108.73 C 117.47 110.28 113.81 111.52 110.04 112.35 C 108.32 107.74 104.36 104.07 103.83 99.06 Z" />
</g>
<g id="#ffffffff">
<path fill="#ffffff" opacity="1.00" d=" M 151.47 81.67 C 152.91 80.78 154.40 79.98 155.92 79.23 C 155.90 90.06 160.04 100.32 160.95 111.05 C 160.96 113.79 159.31 116.11 158.77 118.72 C 159.70 120.52 161.99 121.19 163.67 122.23 C 167.97 126.29 171.38 131.62 172.58 137.49 C 173.04 139.53 174.09 141.80 172.75 143.75 C 169.30 143.47 165.86 143.78 162.43 144.19 C 158.84 145.60 154.37 146.56 152.67 150.48 C 151.20 153.64 149.58 156.75 147.35 159.44 C 146.25 161.42 144.34 162.69 142.48 163.86 C 141.38 164.23 140.30 164.61 139.21 165.00 L 137.72 165.00 C 130.94 162.10 126.92 155.70 122.89 149.89 C 121.44 148.18 119.96 146.50 118.56 144.75 C 116.19 149.38 111.94 152.64 107.41 154.98 C 107.17 155.04 106.69 155.17 106.46 155.23 C 104.87 155.66 103.25 155.94 101.63 156.22 C 98.56 155.98 95.48 155.97 92.42 156.21 C 92.88 153.71 93.39 151.22 94.10 148.77 C 97.14 149.26 100.36 150.61 103.39 149.37 C 107.16 148.18 110.79 146.35 113.27 143.18 C 109.53 142.93 105.92 141.91 102.25 141.24 C 98.89 140.64 96.46 138.01 93.47 136.58 C 92.35 135.02 91.21 133.47 90.24 131.81 C 89.92 130.69 89.63 129.57 89.35 128.45 C 90.08 123.46 93.33 119.58 95.45 115.18 C 97.55 106.79 95.76 98.12 92.76 90.19 C 94.70 89.99 96.65 89.87 98.56 89.48 C 102.14 90.69 105.92 90.81 109.61 91.45 C 113.83 92.81 117.84 94.79 121.69 96.96 C 123.43 94.34 125.25 91.63 127.96 89.92 C 131.73 87.24 136.50 87.00 140.84 85.88 C 144.08 85.16 147.12 83.83 150.08 82.36 C 150.43 82.19 151.12 81.84 151.47 81.67 M 146.64 92.76 C 144.65 93.06 143.48 94.82 142.02 96.02 C 142.09 95.33 142.21 93.95 142.27 93.26 C 139.92 95.11 136.82 94.84 134.16 95.87 C 129.62 97.19 128.11 102.38 127.22 106.49 C 126.93 106.96 126.35 107.90 126.07 108.37 C 126.06 109.06 126.05 110.44 126.04 111.13 C 124.40 110.33 122.85 108.84 121.00 108.73 L 121.89 108.34 C 117.27 103.18 110.55 100.29 103.83 99.06 C 104.36 104.07 108.32 107.74 110.04 112.35 C 111.17 113.75 112.36 115.10 113.68 116.33 C 116.06 119.54 119.52 121.64 122.40 124.34 C 123.36 126.03 124.46 127.65 125.62 129.22 C 127.46 125.35 131.09 122.77 133.16 119.01 C 133.43 118.59 133.98 117.77 134.26 117.36 C 134.99 116.07 135.74 114.78 136.75 113.68 C 137.18 112.53 137.73 111.42 138.79 110.72 C 139.33 108.80 140.66 107.25 141.80 105.65 C 142.37 104.28 143.00 102.93 143.74 101.64 C 144.18 100.17 144.80 98.72 146.03 97.73 C 145.25 100.80 144.18 103.79 142.74 106.61 C 141.15 109.25 139.84 112.06 138.72 114.93 C 135.39 119.57 132.88 124.94 129.29 129.49 C 133.45 131.32 138.08 131.82 142.47 132.97 C 143.83 131.78 145.65 132.03 147.32 132.04 C 148.34 131.73 149.35 131.42 150.37 131.10 C 153.84 132.26 157.82 131.57 160.89 133.89 C 155.87 134.08 150.84 133.89 145.81 134.01 C 145.66 134.21 145.35 134.61 145.19 134.82 C 141.55 136.19 137.10 136.92 133.50 135.20 C 131.09 134.84 128.71 134.25 126.30 133.92 C 125.79 135.03 125.31 136.15 124.85 137.29 C 126.17 140.60 128.48 143.39 130.37 146.39 C 131.27 147.82 132.00 149.46 133.51 150.37 C 135.53 151.98 136.38 155.39 139.05 155.97 C 142.57 154.10 143.47 149.71 145.73 146.67 C 146.69 143.84 148.87 141.79 151.33 140.23 C 153.01 139.23 154.62 138.00 156.64 137.78 C 158.57 136.58 161.15 136.93 163.21 135.76 C 161.95 132.25 158.74 130.02 156.65 127.05 C 156.11 127.02 155.03 126.95 154.49 126.91 C 153.24 125.78 151.59 125.31 150.02 124.86 C 147.02 123.87 143.84 123.92 140.72 123.89 C 143.49 121.08 146.78 118.87 150.05 116.69 L 150.04 116.31 C 152.64 114.38 152.37 110.75 151.90 107.92 C 151.21 104.90 150.75 101.83 150.02 98.82 C 150.00 98.03 149.96 96.45 149.94 95.66 L 149.28 96.31 C 149.46 95.79 149.80 94.76 149.98 94.24 C 149.68 93.64 149.10 92.44 148.80 91.84 C 148.26 92.07 147.18 92.53 146.64 92.76 M 104.03 114.04 C 104.00 114.65 103.93 115.86 103.90 116.47 C 102.49 119.75 101.36 123.27 98.73 125.86 C 97.10 127.40 98.59 129.53 99.28 131.13 C 99.77 131.06 100.75 130.92 101.24 130.86 L 100.58 131.59 C 104.66 132.92 108.65 134.93 113.03 134.94 C 116.52 134.90 120.66 135.70 123.16 132.61 C 121.64 130.29 119.95 128.08 118.68 125.62 C 114.58 121.71 110.57 117.64 107.67 112.73 C 106.46 113.19 105.24 113.61 104.03 114.04 Z" />
</g>
<g id="#457b9dff">
<path fill="#457b9d" opacity="1.00" d=" M 0.00 94.79 C 0.84 96.91 1.09 99.18 1.13 101.45 C 6.21 115.38 20.78 121.64 33.52 126.78 C 42.84 129.40 52.26 131.98 62.01 132.22 C 67.94 133.52 74.01 132.83 80.03 133.04 C 83.48 133.17 86.86 132.38 90.24 131.81 C 91.21 133.47 92.35 135.02 93.47 136.58 C 96.46 138.01 98.89 140.64 102.25 141.24 C 105.92 141.91 109.53 142.93 113.27 143.18 C 110.79 146.35 107.16 148.18 103.39 149.37 C 100.36 150.61 97.14 149.26 94.10 148.77 C 93.39 151.22 92.88 153.71 92.42 156.21 C 95.48 155.97 98.56 155.98 101.63 156.22 C 91.86 158.03 81.90 159.05 71.95 158.92 C 51.68 157.83 30.49 154.49 13.43 142.67 C 7.31 138.39 1.74 132.63 0.00 125.13 L 0.00 94.79 Z" />
<path fill="#457b9d" opacity="1.00" d=" M 149.28 96.31 L 149.94 95.66 C 149.96 96.45 150.00 98.03 150.02 98.82 C 150.02 104.65 149.94 110.48 150.04 116.31 L 150.05 116.69 C 146.78 118.87 143.49 121.08 140.72 123.89 C 143.84 123.92 147.02 123.87 150.02 124.86 C 149.26 127.31 148.42 129.73 147.32 132.04 C 145.65 132.03 143.83 131.78 142.47 132.97 C 138.08 131.82 133.45 131.32 129.29 129.49 C 132.88 124.94 135.39 119.57 138.72 114.93 C 143.53 111.81 146.63 106.62 148.88 101.46 C 148.98 99.74 148.98 98.01 149.28 96.31 Z" />
<path fill="#457b9d" opacity="1.00" d=" M 122.40 124.34 C 126.04 122.68 129.64 120.92 133.16 119.01 C 131.09 122.77 127.46 125.35 125.62 129.22 C 124.46 127.65 123.36 126.03 122.40 124.34 Z" />
<path fill="#457b9d" opacity="1.00" d=" M 101.24 130.86 C 107.04 129.07 113.17 128.23 118.68 125.62 C 119.95 128.08 121.64 130.29 123.16 132.61 C 120.66 135.70 116.52 134.90 113.03 134.94 C 108.65 134.93 104.66 132.92 100.58 131.59 L 101.24 130.86 Z" />
<path fill="#457b9d" opacity="1.00" d=" M 126.30 133.92 C 128.71 134.25 131.09 134.84 133.50 135.20 C 137.10 136.92 141.55 136.19 145.19 134.82 C 141.18 139.65 135.97 143.55 130.37 146.39 C 128.48 143.39 126.17 140.60 124.85 137.29 C 125.31 136.15 125.79 135.03 126.30 133.92 Z" />
<path fill="#457b9d" opacity="1.00" d=" M 118.56 144.75 C 119.96 146.50 121.44 148.18 122.89 149.89 C 118.13 152.63 112.66 153.62 107.41 154.98 C 111.94 152.64 116.19 149.38 118.56 144.75 Z" />
</g>
</svg>
